<?xml version="1.0"?>
<svg id="Capa_1" enable-background="new 0 0 512 512" height="512" viewBox="0 0 512 512" width="512" xmlns="http://www.w3.org/2000/svg"><g><g><path d="m456.969 407.139c27.744-39.712 44.031-88.02 44.031-140.139 0-135.31-109.69-245-245-245s-245 109.69-245 245c0 52.119 16.287 100.427 44.031 140.139z" fill="#746bf9"/></g><g><circle cx="256" cy="222" fill="#8f8ff9" r="180"/></g><g><path d="m355.547 83.218c-12.65-41.159-45.137-83.218-80.681-83.218-12.234 0-18.866 12-18.866 12s-6.632-12-18.866-12c-35.545 0-68.033 42.062-80.682 83.222-3.586 10.526-5.547 21.804-5.589 33.534-.001.128-.005.259-.005.387v30.076h210.286v-30.076c-.001-11.871-1.971-23.282-5.597-33.925z" fill="#ffdd40"/></g><g><path d="m208.916 147.218v-12.854c-32.85-31.529-31.491-102.768-.303-125.564-23.524 14.475-43.023 44.682-52.162 74.423-3.586 10.526-5.547 21.804-5.589 33.534-.001.128-.005.259-.005.387v30.076h58.059z" fill="#ffc839"/></g><g><path d="m116.005 468.066h279.989c23.725-16.557 44.384-37.207 60.954-60.927-9.22-25.363-19.04-47.328-27.391-54.702-23.413-20.673-123.588-37.434-126.172-37.863h-94.772c-2.584.428-102.759 17.19-126.172 37.863-8.351 7.373-18.17 29.339-27.391 54.702 16.572 23.719 37.231 44.369 60.955 60.927z" fill="#47477f"/></g><g><path d="m116.005 468.066h86.833c-52.533-60.944-57.816-137.302-57.989-140.041-25.754 6.589-51.864 15.104-62.407 24.413-8.351 7.373-18.17 29.339-27.391 54.702 16.571 23.718 37.23 44.368 60.954 60.926z" fill="#3b3868"/></g><g><path d="m303.602 314.668h-.496c0-.031.003-.062.003-.093h-94.217v.01h-.062c-.637.105-7.225 1.205-17.132 3.108 5.998 6.933 26.091 31.975 64.302 31.975 38.193 0 58.285-25.018 64.293-31.964-8.73-1.678-14.895-2.734-16.691-3.036z" fill="#3b3868"/></g><g><path d="m303.602 220.734h-94.772v93.934s19.021 20 47.17 20 47.602-20 47.602-20z" fill="#fcad6d"/></g><g><path d="m208.83 220.734v93.851c94.723 0 94.772-53.41 94.772-53.41v-40.44h-94.772z" fill="#fd995b"/></g><g><g><path d="m292.06 91.56 86.739 86.739c12.227 1.338 22.551-8.986 21.213-21.213l-86.739-86.739z" fill="#ff4155"/></g><g><path d="m390.473 175.831c2.934-1.696 5.375-4.137 7.071-7.071l-91.342-91.342-7.071 7.071z" fill="#e80054"/></g><g><path d="m292.06 91.56-16.615-32.158c-1.628-3.151 1.694-6.559 4.885-5.013l32.943 15.958c1.338 12.227-8.986 22.551-21.213 21.213z" fill="#f9ba8f"/></g><g><path d="m275.445 59.402 7.689 14.881c6.244-.899 11.222-5.678 12.375-11.88l.113-.607-15.291-7.407c-3.192-1.546-6.514 1.862-4.886 5.013z" fill="#3b3868"/></g></g><g><path d="m331.058 159.567s10.385-25.285 28.897-19.415-.448 60.664-36.573 64.116z" fill="#fcad6d"/></g><g><path d="m180.942 159.567s-10.385-25.285-28.897-19.415.448 60.664 36.573 64.116z" fill="#fd995b"/></g><g><path d="m255.784 82.484s-19.69 60.442-87.333 60.562c-.029 1.23-.049 2.464-.049 3.708 0 64.505 39.219 140.155 87.597 140.155s87.597-75.651 87.597-140.155c0-1.244-.02-2.478-.049-3.708-67.642-.12-87.763-60.562-87.763-60.562z" fill="#f9ba8f"/></g><g><path d="m208.403 146.754c0-4.214.187-8.339.513-12.39-11.036 5.219-24.395 8.653-40.465 8.682-.029 1.23-.049 2.464-.049 3.708 0 64.505 39.219 140.155 87.597 140.155 6.881 0 13.576-1.535 20-4.346-38.74-16.952-67.596-80.479-67.596-135.809z" fill="#fcad6d"/></g><g><g><path d="m242.013 192.447 8.436-13.441c2.569-4.093 8.533-4.093 11.102 0l8.436 13.441c2.739 4.365-.398 10.038-5.551 10.038h-16.871c-5.154-.001-8.291-5.674-5.552-10.038z" fill="#fcad6d"/></g></g><g><g><path d="m235.384 240.87h41.233c4.111-3.622 7.258-8.309 9.01-13.631 1.584-4.811-2.069-9.754-7.134-9.754h-44.985c-5.065 0-8.718 4.943-7.134 9.754 1.752 5.322 4.899 10.009 9.01 13.631z" fill="#2d2d59"/></g><g><path d="m276.616 240.87c-5.493 4.849-12.714 7.798-20.616 7.798s-15.124-2.948-20.616-7.798c5.5-4.849 12.714-7.798 20.616-7.798s15.116 2.949 20.616 7.798z" fill="#ff4155"/></g></g><g><path d="m310.999 162.085c.043-3.495-1.371-7.004-4.242-9.539-4.675-4.128-11.84-4.128-16.515 0-2.871 2.535-4.284 6.044-4.242 9.539.055 4.538 5.629 6.716 8.838 3.507 2.022-2.022 5.3-2.022 7.322 0 3.21 3.21 8.784 1.032 8.839-3.507z" fill="#2d2d59"/></g><g><path d="m201.001 162.085c-.043-3.495 1.371-7.004 4.242-9.539 4.675-4.128 11.84-4.128 16.515 0 2.871 2.535 4.284 6.044 4.242 9.539-.055 4.538-5.629 6.716-8.838 3.507-2.022-2.022-5.3-2.022-7.322 0-3.21 3.21-8.784 1.032-8.839-3.507z" fill="#2d2d59"/></g><g><path d="m223.5 138.968h-20c-4.142 0-7.5-3.358-7.5-7.5 0-4.142 3.358-7.5 7.5-7.5h20c4.142 0 7.5 3.358 7.5 7.5 0 4.142-3.358 7.5-7.5 7.5z" fill="#ff9100"/></g><g><path d="m308.5 138.968h-20c-4.142 0-7.5-3.358-7.5-7.5 0-4.142 3.358-7.5 7.5-7.5h20c4.142 0 7.5 3.358 7.5 7.5 0 4.142-3.358 7.5-7.5 7.5z" fill="#ff9100"/></g><g><g><path d="m381.214 442.276c4.882 4.882 12.796 4.882 17.678 0l-5.893 5.893c-4.882 4.882-4.882 12.796 0 17.678 4.882 4.882 12.796 4.882 17.678 0l5.893-5.893c-4.882 4.882-4.882 12.796 0 17.678 4.882 4.882 12.796 4.882 17.678 0l5.893-5.893c-4.882 4.882-4.882 12.796 0 17.678 4.882 4.882 12.796 4.882 17.678 0l21.803-21.803c19.526-19.526 19.526-51.184 0-70.711-19.526-19.526-51.184-19.526-70.711 0l-27.695 27.695c-4.884 4.882-4.884 12.796-.002 17.678z" fill="#f9ba8f"/></g><g><g><path d="m436.912 483.805c.547 2.055 1.615 4 3.227 5.612 4.882 4.882 12.796 4.882 17.678 0l5.716-5.716c2.441-2.441 2.441-6.398 0-8.839-2.441-2.441-6.398-2.441-8.839 0l-5.716 5.716c-3.27 3.269-7.898 4.337-12.066 3.227z" fill="#fcad6d"/></g><g><path d="m413.342 472.02c.547 2.055 1.615 4 3.227 5.612 4.882 4.882 12.796 4.882 17.678 0l11.608-11.608c2.441-2.441 2.441-6.398 0-8.839-2.441-2.441-6.398-2.441-8.839 0l-11.608 11.608c-3.27 3.269-7.898 4.337-12.066 3.227z" fill="#fcad6d"/></g><g><path d="m377.986 436.664c.547 2.055 1.615 4 3.227 5.612 4.882 4.882 12.796 4.882 17.678 0l11.608-11.608c2.441-2.441 2.441-6.398 0-8.839-2.441-2.441-6.398-2.441-8.839 0l-11.608 11.608c-3.269 3.27-7.897 4.338-12.066 3.227z" fill="#fcad6d"/></g><g><path d="m389.772 460.235c.547 2.055 1.615 4 3.227 5.612 4.882 4.882 12.796 4.882 17.678 0l17.501-17.501c2.441-2.441 2.441-6.398 0-8.839-2.441-2.441-6.398-2.441-8.839 0l-17.501 17.501c-3.27 3.269-7.898 4.337-12.066 3.227z" fill="#fcad6d"/></g></g></g><g><g><path d="m130.786 442.276c-4.882 4.882-12.796 4.882-17.678 0l5.893 5.893c4.882 4.882 4.882 12.796 0 17.678-4.882 4.882-12.796 4.882-17.678 0l-5.893-5.893c4.882 4.882 4.882 12.796 0 17.678-4.882 4.882-12.796 4.882-17.678 0l-5.893-5.893c4.882 4.882 4.882 12.796 0 17.678-4.882 4.882-12.796 4.882-17.678 0l-21.803-21.803c-19.526-19.526-19.526-51.184 0-70.711 19.526-19.526 51.184-19.526 70.711 0l27.695 27.695c4.884 4.882 4.884 12.796.002 17.678z" fill="#f9ba8f"/></g><g><g><path d="m75.088 483.805c-.547 2.055-1.615 4-3.227 5.612-4.882 4.882-12.796 4.882-17.678 0l-5.716-5.716c-2.441-2.441-2.441-6.398 0-8.839 2.441-2.441 6.398-2.441 8.839 0l5.716 5.716c3.27 3.269 7.898 4.337 12.066 3.227z" fill="#fcad6d"/></g><g><path d="m98.658 472.02c-.547 2.055-1.615 4-3.227 5.612-4.882 4.882-12.796 4.882-17.678 0l-11.608-11.608c-2.441-2.441-2.441-6.398 0-8.839 2.441-2.441 6.398-2.441 8.839 0l11.608 11.608c3.27 3.269 7.898 4.337 12.066 3.227z" fill="#fcad6d"/></g><g><path d="m134.014 436.664c-.547 2.055-1.615 4-3.227 5.612-4.882 4.882-12.796 4.882-17.678 0l-11.609-11.608c-2.441-2.441-2.441-6.398 0-8.839 2.441-2.441 6.398-2.441 8.839 0l11.608 11.608c3.27 3.27 7.898 4.338 12.067 3.227z" fill="#fcad6d"/></g><g><path d="m122.228 460.235c-.547 2.055-1.615 4-3.227 5.612-4.882 4.882-12.796 4.882-17.678 0l-17.501-17.501c-2.441-2.441-2.441-6.398 0-8.839 2.441-2.441 6.398-2.441 8.839 0l17.501 17.501c3.27 3.269 7.898 4.337 12.066 3.227z" fill="#fcad6d"/></g></g></g><g><g><path d="m376 348.281h-240c-11.046 0-20 8.954-20 20v99.785c39.686 27.684 87.942 43.934 140 43.934s100.314-16.25 140-43.934v-99.785c0-11.046-8.954-20-20-20z" fill="#d3dcfb"/></g><g><path d="m116 368.281v99.785c15.462 10.786 32.217 19.846 50 26.873v-126.658c0-11.046 8.954-20 20-20h-50c-11.046 0-20 8.954-20 20z" fill="#bec8f7"/></g></g><g><circle cx="256" cy="446.694" fill="#e9efff" r="20"/></g></g></svg>